HIERARCHY
ROOT joint_Root
{
	OFFSET 0.0 0.0 0.0
	CHANNELS 6 Xposition Yposition Zposition Zrotation Xrotation Yrotation 
	JOINT Hips
	{
		OFFSET -17.1583 93.1646 452.98
		CHANNELS 6 Xposition Yposition Zposition Zrotation Xrotation Yrotation 
		JOINT Spine
		{
			OFFSET 15.7357 0.0 0.0
			CHANNELS 6 Xposition Yposition Zposition Zrotation Xrotation Yrotation 
			JOINT Chest
			{
				OFFSET 8.98455 -0.406207 0.0
				CHANNELS 6 Xposition Yposition Zposition Zrotation Xrotation Yrotation 
				JOINT Neck
				{
					OFFSET 16.3773 0.0 0.0
					CHANNELS 6 Xposition Yposition Zposition Zrotation Xrotation Yrotation 
					JOINT Head
					{
						OFFSET 6.45672 0.0 0.0
						CHANNELS 6 Xposition Yposition Zposition Zrotation Xrotation Yrotation 
						End Site
						{
							OFFSET 0.0 0.0 0.0
						}
					}
				}
				JOINT Shoulder_L
				{
					OFFSET 12.9942 -0.242716 4.98039
					CHANNELS 6 Xposition Yposition Zposition Zrotation Xrotation Yrotation 
					JOINT UpperArm_L
					{
						OFFSET 5.34809 0.0 0.0
						CHANNELS 6 Xposition Yposition Zposition Zrotation Xrotation Yrotation 
						JOINT LowerArm_L
						{
							OFFSET 24.3286 1.87007e-05 0.0
							CHANNELS 6 Xposition Yposition Zposition Zrotation Xrotation Yrotation 
							JOINT Hand_L
							{
								OFFSET 22.2916 0.0 0.0
								CHANNELS 6 Xposition Yposition Zposition Zrotation Xrotation Yrotation 
								End Site
								{
									OFFSET 0.0 0.0 0.0
								}
							}
						}
					}
				}
				JOINT Shoulder_R
				{
					OFFSET 12.9945 -0.242716 -4.98039
					CHANNELS 6 Xposition Yposition Zposition Zrotation Xrotation Yrotation 
					JOINT UpperArm_R
					{
						OFFSET -5.34813 0.0 0.0
						CHANNELS 6 Xposition Yposition Zposition Zrotation Xrotation Yrotation 
						JOINT LowerArm_R
						{
							OFFSET -24.3289 0.000322201 0.0
							CHANNELS 6 Xposition Yposition Zposition Zrotation Xrotation Yrotation 
							JOINT Hand_R
							{
								OFFSET -22.2915 -0.000108084 0.0
								CHANNELS 6 Xposition Yposition Zposition Zrotation Xrotation Yrotation 
								End Site
								{
									OFFSET 0.0 0.0 0.0
								}
							}
						}
					}
				}
			}
		}
		JOINT UpperLeg_L
		{
			OFFSET -2.19248 -6.46944 0.0
			CHANNELS 6 Xposition Yposition Zposition Zrotation Xrotation Yrotation 
			JOINT LowerLeg_L
			{
				OFFSET 39.0811 0.0 -1.23785e-05
				CHANNELS 6 Xposition Yposition Zposition Zrotation Xrotation Yrotation 
				JOINT Foot_L
				{
					OFFSET 40.9854 0.0 -1.26872e-05
					CHANNELS 6 Xposition Yposition Zposition Zrotation Xrotation Yrotation 
					JOINT Toes_L
					{
						OFFSET 11.7543 0.0 0.0
						CHANNELS 6 Xposition Yposition Zposition Zrotation Xrotation Yrotation 
						End Site
						{
							OFFSET 0.0 0.0 0.0
						}
					}
				}
			}
		}
		JOINT UpperLeg_R
		{
			OFFSET -2.19251 6.46944 0.0
			CHANNELS 6 Xposition Yposition Zposition Zrotation Xrotation Yrotation 
			JOINT LowerLeg_R
			{
				OFFSET -39.0811 -0.00228153 -0.0401928
				CHANNELS 6 Xposition Yposition Zposition Zrotation Xrotation Yrotation 
				JOINT Foot_R
				{
					OFFSET -40.9854 0.0 0.0
					CHANNELS 6 Xposition Yposition Zposition Zrotation Xrotation Yrotation 
					JOINT Toes_R
					{
						OFFSET -11.7543 0.0 0.0
						CHANNELS 6 Xposition Yposition Zposition Zrotation Xrotation Yrotation 
						End Site
						{
							OFFSET 0.0 0.0 0.0
						}
					}
				}
			}
		}
	}
}
MOTION
Frames:	5
Frame Time:	0.0333333
0.000000 0.000000 0.000000 0.000000 0.000000 -0.000000 -189.601000 88.817200 243.452000 82.011800 85.657400 4.074760 15.735700 0.000005 -0.000001 128.333000 86.869300 -127.641000 8.984550 -0.406207 -0.000000 -2.879860 3.817820 1.478920 16.377300 -0.000001 -0.000001 -0.089836 4.354270 0.860918 6.456720 -0.000001 -0.000000 4.927880 5.431890 -3.888270 12.994200 -0.242716 4.980390 -92.728500 7.527940 -70.010100 5.348090 -0.000007 -0.000001 -51.953900 -21.097600 13.725700 24.328600 0.000019 0.000005 8.367800 20.039400 -23.231800 22.291600 -0.000001 0.000005 50.838200 4.368740 18.719100 12.994500 -0.242716 -4.980390 89.267800 2.626980 -74.420100 -5.348130 -0.000001 -0.000004 -69.376200 15.890400 -19.579900 -24.328900 0.000322 -0.000009 -0.566460 -0.538962 -46.366900 -22.291500 -0.000108 -0.000004 44.438300 5.437590 -4.201640 -2.192480 -6.469440 -0.000000 -179.735000 -3.127560 -30.803800 39.081100 -0.000007 -0.000012 -0.009589 0.046530 11.644200 40.985400 -0.000006 -0.000013 -3.805750 8.553780 -60.796100 11.754300 -0.000000 0.000003 0.002456 0.093142 -12.799500 -2.192510 6.469440 -0.000001 179.092000 9.653500 -170.757000 -39.081100 -0.002282 -0.040193 -0.030970 0.090980 20.651400 -40.985400 0.000008 0.000006 -4.342330 9.341570 -72.434700 -11.754300 -0.000006 -0.000006 -0.004011 -0.051550 -18.670000
0.000000 0.000000 0.000000 0.000000 0.000000 -0.000000 -184.960000 88.665800 242.971000 94.460700 85.541400 -9.945560 15.735700 0.000005 -0.000001 137.695000 87.421700 -137.447000 8.984550 -0.406207 -0.000000 -4.308280 3.784540 0.638880 16.377300 -0.000001 -0.000001 -0.425563 4.351230 1.385410 6.456720 -0.000001 -0.000000 5.040360 5.620260 -3.714650 12.994200 -0.242716 4.980390 -92.686500 7.507230 -70.244700 5.348090 -0.000007 -0.000001 -55.393500 -18.959100 11.483700 24.328600 0.000019 0.000005 6.878440 20.357100 -19.125000 22.291600 -0.000001 0.000005 50.393700 4.347030 19.060400 12.994500 -0.242716 -4.980390 89.187700 2.949450 -74.595300 -5.348130 -0.000001 -0.000004 -70.603300 16.583100 -16.907300 -24.328900 0.000322 -0.000009 -1.025500 -1.159920 -41.454000 -22.291500 -0.000108 -0.000004 43.412000 5.435910 -4.143290 -2.192480 -6.469440 -0.000000 178.457000 -2.165880 -35.491600 39.081100 -0.000007 -0.000012 0.031216 -0.084351 20.308400 40.985400 -0.000006 -0.000013 -0.334458 8.518230 -54.750700 11.754300 -0.000000 0.000003 0.002465 0.091676 -12.859000 -2.192510 6.469440 -0.000001 177.637000 8.954630 -172.254000 -39.081100 -0.002282 -0.040193 -0.010825 0.031106 24.442600 -40.985400 0.000008 0.000006 -4.323560 8.608400 -68.518900 -11.754300 -0.000006 -0.000006 -0.032681 -0.229498 -25.981900
0.000000 0.000000 0.000000 0.000000 0.000000 -0.000000 -179.877000 88.765500 242.441000 110.252000 85.138500 -26.581700 15.735700 0.000005 -0.000001 148.306000 87.950600 -148.650000 8.984550 -0.406207 -0.000000 -5.607740 3.523150 -0.517463 16.377300 -0.000001 -0.000001 -0.571541 4.352440 1.791300 6.456720 -0.000001 -0.000000 5.472140 5.965420 -3.032070 12.994200 -0.242716 4.980390 -92.702200 7.635170 -70.443800 5.348090 -0.000007 -0.000001 -58.795500 -15.995000 9.658020 24.328600 0.000019 0.000005 5.329670 19.699300 -15.469500 22.291600 -0.000001 0.000005 49.701800 4.390010 18.382300 12.994500 -0.242716 -4.980390 89.076300 3.390780 -74.751100 -5.348130 -0.000001 -0.000004 -72.072500 17.384100 -13.634600 -24.328900 0.000322 -0.000009 -1.034460 -1.508560 -34.416600 -22.291500 -0.000108 -0.000004 42.240600 5.440770 -4.313030 -2.192480 -6.469440 -0.000000 177.471000 0.685654 -36.438700 39.081100 -0.000007 -0.000012 0.079299 -0.166521 25.464100 40.985400 -0.000006 -0.000013 0.941865 6.589750 -53.340300 11.754300 -0.000000 0.000003 0.002088 0.117426 -11.815000 -2.192510 6.469440 -0.000001 176.153000 7.573420 -173.783000 -39.081100 -0.002282 -0.040193 0.025032 -0.039518 28.802900 -40.985400 0.000008 0.000006 -3.577400 6.221440 -61.722500 -11.754300 -0.000006 -0.000006 -0.101559 -0.448408 -35.295700
0.000000 0.000000 0.000000 0.000000 0.000000 -0.000000 -174.491000 88.901500 241.934000 124.021000 84.916400 -39.798500 15.735700 0.000005 -0.000001 149.180000 88.188400 -149.976000 8.984550 -0.406207 -0.000000 -5.892090 3.201760 -1.428760 16.377300 -0.000001 -0.000001 -0.745116 4.224770 1.755730 6.456720 -0.000001 -0.000000 5.785450 5.979690 -2.273090 12.994200 -0.242716 4.980390 -92.595800 7.488290 -70.818700 5.348090 -0.000007 -0.000001 -63.074400 -12.572300 7.353760 24.328600 0.000019 0.000005 4.578530 19.991800 -13.182800 22.291600 -0.000001 0.000005 49.671000 4.394640 18.308500 12.994500 -0.242716 -4.980390 89.213700 2.904650 -74.845600 -5.348130 -0.000001 -0.000004 -74.675800 16.896800 -9.796720 -24.328900 0.000322 -0.000009 -0.326475 -0.646444 -26.718300 -22.291500 -0.000108 -0.000004 40.875700 5.438670 -4.239190 -2.192480 -6.469440 -0.000000 176.300000 3.310590 -35.065800 39.081100 -0.000007 -0.000012 0.147998 -0.252924 30.333900 40.985400 -0.000006 -0.000013 1.950210 4.756350 -56.054500 11.754300 -0.000000 0.000003 0.000985 0.148960 -10.535800 -2.192510 6.469440 -0.000001 174.903000 6.584240 -174.858000 -39.081100 -0.002282 -0.040193 0.066894 -0.094374 33.977100 -40.985400 0.000008 0.000006 -1.773740 3.734410 -52.033800 -11.754300 -0.000006 -0.000006 -0.161094 -0.576186 -41.013200
0.000000 0.000000 0.000000 0.000000 0.000000 -0.000000 -169.171000 88.957900 241.409000 129.217000 84.418000 -43.470700 15.735700 0.000005 -0.000001 142.381000 88.142700 -143.387000 8.984550 -0.406207 -0.000000 -5.475160 3.054840 -1.868330 16.377300 -0.000001 -0.000001 -0.663678 4.236390 1.621470 6.456720 -0.000001 -0.000000 5.866510 6.082140 -1.951530 12.994200 -0.242716 4.980390 -92.532200 7.464170 -71.200000 5.348090 -0.000007 -0.000001 -67.045500 -9.816580 5.236390 24.328600 0.000019 0.000005 4.756230 20.794400 -13.189900 22.291600 -0.000001 0.000005 49.140600 4.417420 17.944500 12.994500 -0.242716 -4.980390 89.314500 2.503840 -74.683100 -5.348130 -0.000001 -0.000004 -76.416500 16.296800 -6.332670 -24.328900 0.000322 -0.000009 0.284540 0.834861 -18.891400 -22.291500 -0.000108 -0.000004 39.158900 5.431080 -3.976230 -2.192480 -6.469440 -0.000000 174.796000 3.839010 -32.021700 39.081100 -0.000007 -0.000012 0.250786 -0.363363 34.612900 40.985400 -0.000006 -0.000013 3.133540 4.055020 -60.982800 11.754300 -0.000000 0.000003 -0.000376 0.173734 -9.529920 -2.192510 6.469440 -0.000001 173.718000 5.701870 -177.020000 -39.081100 -0.002282 -0.040193 0.120910 -0.135057 41.055900 -40.985400 0.000008 0.000006 -0.833998 2.118750 -39.647200 -11.754300 -0.000006 -0.000006 -0.098523 -0.440877 -34.966500
